<?xml version="1.0" encoding="UTF-8"?>
<svg xmlns="http://www.w3.org/2000/svg" width="158" height="40" viewBox="0 0 158 40" fill="none">
  <path d="M63.222 28H50.902V26.284L59.57 14.822H51.342V12.6H62.87V14.294L54.224 25.778H63.222V28ZM64.454 22.588C64.454 20.982 64.96 19.618 65.994 18.54C67.028 17.462 68.348 16.912 69.998 16.912C71.098 16.912 72.044 17.198 72.836 17.792C74.442 18.936 75.124 20.718 75.124 22.676V23.292H66.852C67.138 25.118 68.722 26.196 70.922 26.196C72.176 26.196 73.32 25.866 74.398 25.228V27.23C73.408 27.934 72.088 28.286 70.416 28.286C68.744 28.286 67.336 27.758 66.17 26.702C65.026 25.646 64.454 24.282 64.454 22.588ZM66.874 21.488H72.726C72.704 20.828 72.462 20.234 71.956 19.706C71.45 19.178 70.768 18.914 69.888 18.914C68.15 18.914 67.028 20.08 66.874 21.488ZM79.9698 28H77.5938V17.198H79.9698V19.068C80.6958 17.814 82.2798 16.912 83.9518 16.912C84.0398 16.912 84.1058 16.912 84.1718 16.934V19.31C83.9738 19.288 83.7538 19.266 83.5118 19.266C81.8178 19.266 80.4758 20.256 79.9698 21.378V28ZM91.288 26.196C92.3 26.196 93.136 25.844 93.818 25.162C94.5 24.48 94.83 23.622 94.83 22.588C94.83 21.576 94.5 20.718 93.818 20.036C93.136 19.354 92.3 19.002 91.288 19.002C90.276 19.002 89.418 19.354 88.736 20.036C88.054 20.718 87.724 21.576 87.724 22.588C87.724 23.622 88.054 24.48 88.736 25.162C89.418 25.844 90.254 26.196 91.288 26.196ZM91.288 28.286C89.55 28.286 88.142 27.736 87.02 26.636C85.898 25.536 85.348 24.194 85.348 22.588C85.348 21.004 85.898 19.662 87.02 18.562C88.142 17.462 89.55 16.912 91.288 16.912C93.004 16.912 94.412 17.462 95.534 18.562C96.656 19.662 97.206 21.004 97.206 22.588C97.206 24.172 96.656 25.514 95.534 26.636C94.412 27.736 93.004 28.286 91.288 28.286ZM104.665 28.286C103.059 28.286 101.673 27.758 100.529 26.68C99.407 25.602 98.835 24.238 98.835 22.566C98.835 20.916 99.407 19.552 100.529 18.496C101.673 17.44 103.059 16.912 104.687 16.912C105.897 16.912 106.997 17.154 107.943 17.66V19.706C106.975 19.244 106.007 19.002 105.039 19.002C103.961 19.002 103.059 19.332 102.311 20.014C101.585 20.696 101.211 21.554 101.211 22.588C101.211 23.622 101.585 24.502 102.311 25.184C103.059 25.866 103.961 26.196 105.039 26.196C106.183 26.196 107.217 25.932 108.119 25.382V27.406C107.085 28 105.941 28.286 104.665 28.286ZM115.77 26.196C116.782 26.196 117.618 25.844 118.3 25.162C118.982 24.48 119.312 23.622 119.312 22.588C119.312 21.576 118.982 20.718 118.3 20.036C117.618 19.354 116.782 19.002 115.77 19.002C114.758 19.002 113.9 19.354 113.218 20.036C112.536 20.718 112.206 21.576 112.206 22.588C112.206 23.622 112.536 24.48 113.218 25.162C113.9 25.844 114.736 26.196 115.77 26.196ZM115.77 28.286C114.032 28.286 112.624 27.736 111.502 26.636C110.38 25.536 109.83 24.194 109.83 22.588C109.83 21.004 110.38 19.662 111.502 18.562C112.624 17.462 114.032 16.912 115.77 16.912C117.486 16.912 118.894 17.462 120.016 18.562C121.138 19.662 121.688 21.004 121.688 22.588C121.688 24.172 121.138 25.514 120.016 26.636C118.894 27.736 117.486 28.286 115.77 28.286ZM128.553 28.286C127.035 28.286 125.781 27.736 124.791 26.636C123.801 25.536 123.317 24.194 123.317 22.588C123.317 21.004 123.801 19.662 124.791 18.562C125.781 17.462 127.035 16.912 128.553 16.912C130.225 16.912 131.501 17.506 132.403 18.672V12.6H134.779V28H132.403V26.526C131.501 27.692 130.225 28.286 128.553 28.286ZM129.191 26.196C130.599 26.196 131.809 25.382 132.403 24.26V20.916C131.809 19.838 130.599 19.002 129.191 19.002C128.201 19.002 127.365 19.354 126.705 20.058C126.045 20.74 125.715 21.598 125.715 22.588C125.715 23.6 126.045 24.458 126.705 25.162C127.365 25.844 128.201 26.196 129.191 26.196ZM137.169 22.588C137.169 20.982 137.675 19.618 138.709 18.54C139.743 17.462 141.063 16.912 142.713 16.912C143.813 16.912 144.759 17.198 145.551 17.792C147.157 18.936 147.839 20.718 147.839 22.676V23.292H139.567C139.853 25.118 141.437 26.196 143.637 26.196C144.891 26.196 146.035 25.866 147.113 25.228V27.23C146.123 27.934 144.803 28.286 143.131 28.286C141.459 28.286 140.051 27.758 138.885 26.702C137.741 25.646 137.169 24.282 137.169 22.588ZM139.589 21.488H145.441C145.419 20.828 145.177 20.234 144.671 19.706C144.165 19.178 143.483 18.914 142.603 18.914C140.865 18.914 139.743 20.08 139.589 21.488ZM152.685 28H150.309V17.198H152.685V19.068C153.411 17.814 154.995 16.912 156.667 16.912C156.755 16.912 156.821 16.912 156.887 16.934V19.31C156.689 19.288 156.469 19.266 156.227 19.266C154.533 19.266 153.191 20.256 152.685 21.378V28Z" fill="white"></path>
  <circle cx="20" cy="20" r="20" fill="#4CEF8A"></circle>
  <path fill-rule="evenodd" clip-rule="evenodd" d="M20.1264 8.92871H24.4812L29.0175 13.465H29.0183V22.664L24.6634 26.8924V13.465H15.4994L20.1264 8.92871ZM20.0364 31.4287H15.6816L11.1453 26.8925H11.1445V17.6934L15.4994 13.465L15.4994 26.8924L24.6634 26.8924L20.0364 31.4287Z" fill="#262626"></path>
</svg>
